<svg width="32" height="32" viewBox="0 0 32 32" fill="none" xmlns="http://www.w3.org/2000/svg">
<path d="M11.7267 22.782C11.1221 23.6637 10.4747 24.5151 9.78667 25.3333C4.86667 25.1933 3 22 3 22C3.06923 17.4753 4.16573 13.0255 6.20667 8.98667C8.00012 7.58363 10.1854 6.77288 12.46 6.66667L13.1267 8.20667C14.0789 8.07508 15.0387 8.00604 16 8C16.9656 8.00325 17.9299 8.07006 18.8867 8.2L19.5533 6.66C21.8301 6.77196 24.0157 7.58979 25.8067 9C27.841 13.0359 28.9329 17.4809 29 22C29 22 27.1333 25.1933 22.2133 25.3333C21.5352 24.5194 20.8989 23.6717 20.3067 22.7933M24.6133 20.86C22.0533 22.1567 19.5767 23.4533 16 23.4533C12.4233 23.4533 9.94667 22.1567 7.38667 20.86" stroke="white" stroke-linecap="round" stroke-linejoin="round"/>
<path d="M11.898 19.72C13.1314 19.72 14.1313 18.7201 14.1313 17.4867C14.1313 16.2532 13.1314 15.2533 11.898 15.2533C10.6646 15.2533 9.66467 16.2532 9.66467 17.4867C9.66467 18.7201 10.6646 19.72 11.898 19.72Z" stroke="white" stroke-linecap="round" stroke-linejoin="round"/>
<path d="M20.102 19.72C21.3354 19.72 22.3353 18.7201 22.3353 17.4867C22.3353 16.2532 21.3354 15.2533 20.102 15.2533C18.8685 15.2533 17.8687 16.2532 17.8687 17.4867C17.8687 18.7201 18.8685 19.72 20.102 19.72Z" stroke="white" stroke-linecap="round" stroke-linejoin="round"/>
</svg>
