<svg width="1440" height="301" viewBox="0 0 1440 301" fill="none" xmlns="http://www.w3.org/2000/svg">
<mask id="mask0_2_135" style="mask-type:luminance" maskUnits="userSpaceOnUse" x="0" y="-202" width="1564" height="503">
<path d="M1564 -202L0 -202L0 301L1564 301V-202Z" fill="white"/>
</mask>
<g mask="url(#mask0_2_135)">
<path d="M-66.7198 270.328L94.8824 370.699" stroke="#BAB280" stroke-width="1.5"/>
<path d="M761.711 233.668L764.535 150.719" stroke="#BAB280" stroke-width="1.5"/>
<path d="M761.711 233.668L886.745 279.752" stroke="#BAB280" stroke-width="1.5"/>
<path d="M761.711 233.668L870.67 157.064" stroke="#BAB280" stroke-width="1.5"/>
<path d="M761.711 233.668L585.522 230.461" stroke="#BAB280" stroke-width="1.5"/>
<path d="M761.711 233.668L730.322 404.145" stroke="#BAB280" stroke-width="1.5"/>
<path d="M761.711 233.668L928.43 367.891" stroke="#BAB280" stroke-width="1.5"/>
<path d="M886.745 279.752L928.43 367.891" stroke="#BAB280" stroke-width="1.5"/>
<path d="M886.745 279.752L1023.75 271.533" stroke="#BAB280" stroke-width="1.5"/>
<path d="M886.745 279.752L870.67 157.064" stroke="#BAB280" stroke-width="1.5"/>
<path d="M1023.75 271.533L928.43 367.891" stroke="#BAB280" stroke-width="1.5"/>
<path d="M1023.75 271.533L1073.44 401.507" stroke="#BAB280" stroke-width="1.5"/>
<path d="M1023.75 271.533L1201.93 249.699" stroke="#BAB280" stroke-width="1.5"/>
<path d="M1239.67 399.089L1201.93 249.699" stroke="#BAB280" stroke-width="1.5"/>
<path d="M1239.67 399.089L1376.46 244.966" stroke="#BAB280" stroke-width="1.5"/>
<path d="M1508.01 -12.0475L1414.72 129.734" stroke="#BAB280" stroke-width="1.5"/>
<path d="M94.8823 370.699L240.172 226.169" stroke="#BAB280" stroke-width="1.5"/>
<path d="M94.8823 370.699L371.19 226.381" stroke="#BAB280" stroke-width="1.5"/>
<path d="M240.172 226.169L371.19 226.381" stroke="#BAB280" stroke-width="1.5"/>
<path d="M240.172 226.169L238.836 349.722" stroke="#BAB280" stroke-width="1.5"/>
<path d="M240.172 226.169L380.682 356.813" stroke="#BAB280" stroke-width="1.5"/>
<path d="M240.172 226.169L-66.7198 270.328" stroke="#BAB280" stroke-width="1.5"/>
<path d="M238.836 349.722L371.19 226.381" stroke="#BAB280" stroke-width="1.5"/>
<path d="M371.19 226.381L380.682 356.813" stroke="#BAB280" stroke-width="1.5"/>
<path d="M371.19 226.381L585.522 230.461" stroke="#BAB280" stroke-width="1.5"/>
<path d="M371.19 226.381L571.794 400.54" stroke="#BAB280" stroke-width="1.5"/>
<path d="M585.522 230.461L764.535 150.719" stroke="#BAB280" stroke-width="1.5"/>
<path d="M571.794 400.54L585.522 230.461" stroke="#BAB280" stroke-width="1.5"/>
<path d="M764.535 150.719L870.67 157.064" stroke="#BAB280" stroke-width="1.5"/>
<path d="M730.322 404.145L886.745 279.752" stroke="#BAB280" stroke-width="1.5"/>
<path d="M730.323 404.145L585.522 230.461" stroke="#BAB280" stroke-width="1.5"/>
<path d="M870.67 157.064L1023.75 271.533" stroke="#BAB280" stroke-width="1.5"/>
<path d="M870.67 157.064L1097.01 141.728" stroke="#BAB280" stroke-width="1.5"/>
<path d="M870.67 157.064L928.43 367.891" stroke="#BAB280" stroke-width="1.5"/>
<path d="M1097.01 141.728L1201.93 249.699" stroke="#BAB280" stroke-width="1.5"/>
<path d="M1097.01 141.728L1023.75 271.533" stroke="#BAB280" stroke-width="1.5"/>
<path d="M1097.01 141.728L1204.21 -5.93176" stroke="#BAB280" stroke-width="1.5"/>
<path d="M1097.01 141.728L886.745 279.752" stroke="#BAB280" stroke-width="1.5"/>
<path d="M1204.21 -5.93176L1414.72 129.734" stroke="#BAB280" stroke-width="1.5"/>
<path d="M1204.21 -5.93176L1201.93 249.699" stroke="#BAB280" stroke-width="1.5"/>
<path d="M1201.93 249.699L1376.46 244.966" stroke="#BAB280" stroke-width="1.5"/>
<path d="M1414.16 -22.3196L1414.72 129.734" stroke="#BAB280" stroke-width="1.5"/>
<path d="M1414.72 129.734L1538.11 151.279" stroke="#BAB280" stroke-width="1.5"/>
<path d="M1414.72 129.734L1376.46 244.966" stroke="#BAB280" stroke-width="1.5"/>
<path d="M1414.72 129.734L1538.04 232.497" stroke="#BAB280" stroke-width="1.5"/>
<path d="M1414.72 129.734L1673.28 155.325" stroke="#BAB280" stroke-width="1.5"/>
<path d="M1376.46 244.966L1398.78 349.044" stroke="#BAB280" stroke-width="1.5"/>
<path d="M1376.46 244.966L1538.04 232.497" stroke="#BAB280" stroke-width="1.5"/>
<path d="M1398.78 349.044L1538.04 232.497" stroke="#BAB280" stroke-width="1.5"/>
<path d="M1398.78 349.044L1201.93 249.699" stroke="#BAB280" stroke-width="1.5"/>
<path d="M1538.11 151.279L1376.46 244.966" stroke="#BAB280" stroke-width="1.5"/>
<path d="M761.711 254.873C776.708 254.873 788.864 245.379 788.864 233.668C788.864 221.956 776.708 212.462 761.711 212.462C746.716 212.462 734.558 221.956 734.558 233.668C734.558 245.379 746.716 254.873 761.711 254.873Z" fill="url(#paint0_radial_2_135)"/>
<path d="M886.745 300.958C901.74 300.958 913.898 291.463 913.898 279.752C913.898 268.04 901.74 258.546 886.745 258.546C871.748 258.546 859.592 268.04 859.592 279.752C859.592 291.463 871.748 300.958 886.745 300.958Z" fill="url(#paint1_radial_2_135)"/>
<path d="M1023.75 292.738C1038.74 292.738 1050.9 283.244 1050.9 271.533C1050.9 259.821 1038.74 250.327 1023.75 250.327C1008.75 250.327 996.597 259.821 996.597 271.533C996.597 283.244 1008.75 292.738 1023.75 292.738Z" fill="url(#paint2_radial_2_135)"/>
<path d="M240.172 230.41C243.172 230.41 245.602 228.511 245.602 226.169C245.602 223.827 243.172 221.928 240.172 221.928C237.173 221.928 234.742 223.827 234.742 226.169C234.742 228.511 237.173 230.41 240.172 230.41Z" fill="#CEC9AA"/>
<path d="M371.19 230.622C374.188 230.622 376.62 228.723 376.62 226.381C376.62 224.039 374.188 222.14 371.19 222.14C368.19 222.14 365.758 224.039 365.758 226.381C365.758 228.723 368.19 230.622 371.19 230.622Z" fill="#CEC9AA"/>
<path d="M585.522 234.702C588.522 234.702 590.953 232.804 590.953 230.461C590.953 228.119 588.522 226.22 585.522 226.22C582.523 226.22 580.092 228.119 580.092 230.461C580.092 232.804 582.523 234.702 585.522 234.702Z" fill="#CEC9AA"/>
<path d="M764.535 154.96C767.535 154.96 769.966 153.062 769.966 150.719C769.966 148.377 767.535 146.478 764.535 146.478C761.536 146.478 759.105 148.377 759.105 150.719C759.105 153.062 761.536 154.96 764.535 154.96Z" fill="#CEC9AA"/>
<path d="M870.671 161.305C873.67 161.305 876.101 159.406 876.101 157.064C876.101 154.722 873.67 152.823 870.671 152.823C867.671 152.823 865.24 154.722 865.24 157.064C865.24 159.406 867.671 161.305 870.671 161.305Z" fill="#CEC9AA"/>
<path d="M1097.01 145.969C1100.02 145.969 1102.45 144.07 1102.45 141.728C1102.45 139.386 1100.02 137.487 1097.01 137.487C1094.01 137.487 1091.58 139.386 1091.58 141.728C1091.58 144.07 1094.01 145.969 1097.01 145.969Z" fill="#CEC9AA"/>
<path d="M1201.93 253.94C1204.94 253.94 1207.37 252.041 1207.37 249.699C1207.37 247.357 1204.94 245.458 1201.93 245.458C1198.93 245.458 1196.5 247.357 1196.5 249.699C1196.5 252.041 1198.93 253.94 1201.93 253.94Z" fill="#CEC9AA"/>
<path d="M1414.72 133.975C1417.72 133.975 1420.15 132.077 1420.15 129.734C1420.15 127.392 1417.72 125.493 1414.72 125.493C1411.73 125.493 1409.3 127.392 1409.3 129.734C1409.3 132.077 1411.73 133.975 1414.72 133.975Z" fill="#CEC9AA"/>
<path d="M1376.46 249.207C1379.46 249.207 1381.89 247.308 1381.89 244.966C1381.89 242.624 1379.46 240.725 1376.46 240.725C1373.46 240.725 1371.03 242.624 1371.03 244.966C1371.03 247.308 1373.46 249.207 1376.46 249.207Z" fill="#CEC9AA"/>
</g>
<defs>
<radialGradient id="paint0_radial_2_135" cx="0" cy="0" r="1" gradientUnits="userSpaceOnUse" gradientTransform="translate(761.711 233.668) scale(27.1528 21.2057)">
<stop offset="0.1" stop-color="white"/>
<stop offset="0.2" stop-color="#9D9355"/>
<stop offset="1" stop-color="#9D9355" stop-opacity="0"/>
</radialGradient>
<radialGradient id="paint1_radial_2_135" cx="0" cy="0" r="1" gradientUnits="userSpaceOnUse" gradientTransform="translate(886.745 279.752) scale(27.1528 21.2057)">
<stop offset="0.1" stop-color="white"/>
<stop offset="0.2" stop-color="#9D9355"/>
<stop offset="1" stop-color="#9D9355" stop-opacity="0"/>
</radialGradient>
<radialGradient id="paint2_radial_2_135" cx="0" cy="0" r="1" gradientUnits="userSpaceOnUse" gradientTransform="translate(1023.75 271.533) scale(27.1528 21.2057)">
<stop offset="0.1" stop-color="white"/>
<stop offset="0.2" stop-color="#9D9355"/>
<stop offset="1" stop-color="#9D9355" stop-opacity="0"/>
</radialGradient>
</defs>
</svg>
