<svg width="12" height="17" viewBox="0 0 12 17" fill="none" xmlns="http://www.w3.org/2000/svg">
<path d="M9.20637 6.86218V3.46107C9.18111 2.53452 8.79696 1.65443 8.13565 1.00805C7.47434 0.361664 6.58806 0 5.66537 0C4.74268 0 3.8564 0.361664 3.19509 1.00805C2.53378 1.65443 2.14963 2.53452 2.12437 3.46107C2.11845 3.55809 2.13236 3.6553 2.16525 3.74672C2.19814 3.83813 2.2493 3.92182 2.3156 3.99262C2.38189 4.06342 2.46191 4.11984 2.55073 4.15841C2.63954 4.19698 2.73528 4.21687 2.83204 4.21687C2.9288 4.21687 3.02453 4.19698 3.11335 4.15841C3.20217 4.11984 3.28219 4.06342 3.34848 3.99262C3.41478 3.92182 3.46594 3.83813 3.49883 3.74672C3.53172 3.6553 3.54563 3.55809 3.53971 3.46107C3.53971 2.89509 3.76352 2.35229 4.16191 1.95209C4.5603 1.55188 5.10064 1.32704 5.66404 1.32704C6.22745 1.32704 6.76779 1.55188 7.16618 1.95209C7.56457 2.35229 7.78838 2.89509 7.78838 3.46107V6.04058C6.93099 5.68578 5.99974 5.54881 5.07708 5.6418C4.15442 5.7348 3.26882 6.05489 2.49868 6.57373C1.72855 7.09258 1.09763 7.79417 0.661806 8.61639C0.225978 9.43861 -0.00132024 10.3561 3.44759e-05 11.2876C-0.00331131 12.2513 0.236919 13.2 0.698217 14.0449C1.15952 14.8898 1.82678 15.6033 2.63749 16.1184C3.4482 16.6335 4.37582 16.9335 5.33344 16.9901C6.29105 17.0468 7.24731 16.8583 8.11262 16.4424C8.97793 16.0264 9.72397 15.3966 10.2808 14.612C10.8377 13.8273 11.1871 12.9135 11.2964 11.9561C11.4057 10.9987 11.2713 10.0291 10.9057 9.1382C10.5402 8.24726 9.95547 7.46413 9.20637 6.86218ZM6.37304 15.4917V13.2243C6.64365 13.0677 6.85525 12.8258 6.97499 12.536C7.09473 12.2463 7.11591 11.925 7.03525 11.6219C6.95459 11.3189 6.77659 11.051 6.5289 10.86C6.2812 10.669 5.97765 10.5654 5.66537 10.5654C5.35309 10.5654 5.04955 10.669 4.80185 10.86C4.55415 11.051 4.37616 11.3189 4.2955 11.6219C4.21484 11.925 4.23602 12.2463 4.35576 12.536C4.4755 12.8258 4.68709 13.0677 4.9577 13.2243V15.4917C4.12741 15.3492 3.35802 14.962 2.74727 14.3793C2.13651 13.7965 1.71197 13.0446 1.52755 12.219C1.34314 11.3933 1.40719 10.5313 1.71156 9.74228C2.01594 8.9533 2.5469 8.273 3.23699 7.78782C3.95192 7.2966 4.79788 7.03377 5.66404 7.03377C6.53021 7.03377 7.37617 7.2966 8.0911 7.78782C8.78116 8.27282 9.31217 8.9529 9.61668 9.7417C9.92119 10.5305 9.98548 11.3924 9.80136 12.218C9.61725 13.0435 9.19305 13.7955 8.58264 14.3784C7.97222 14.9613 7.20313 15.3488 6.37304 15.4917Z" fill="#F4F4F4"/>
</svg>
