<svg width="142" height="20" viewBox="0 0 142 20" fill="none" xmlns="http://www.w3.org/2000/svg">
<path d="M39.431 19.9981C35.6844 19.9981 32.2005 17.779 30.5547 14.3463C29.4544 12.0503 27.1595 10.5946 24.6446 10.5946C22.1296 10.5946 19.8348 12.0521 18.7345 14.3463C17.0887 17.779 13.6047 19.9981 9.8582 19.9981C4.42149 19.9981 0 15.513 0 10C0 4.48696 4.42149 0 9.8582 0C13.6047 0 17.0887 2.2191 18.7345 5.65185C19.8348 7.94785 22.1296 9.40349 24.6446 9.40349C27.1595 9.40349 29.4562 7.94598 30.5547 5.65185C32.2005 2.2191 35.6844 0 39.431 0C44.8658 0 49.2892 4.48509 49.2892 10C49.2892 15.5149 44.8658 19.9981 39.431 19.9981Z" fill="#F4F4F4"/>
<path d="M62.1414 20C67.5859 20 71.9996 15.5228 71.9996 10C71.9996 4.47715 67.5859 0 62.1414 0C56.6969 0 52.2832 4.47715 52.2832 10C52.2832 15.5228 56.6969 20 62.1414 20Z" fill="#F4F4F4"/>
<path d="M95.7564 4.13162C95.8505 4.3208 95.8966 4.50997 95.8966 4.69914V16.0314H98.9975C99.3721 16.0314 99.5604 16.2206 99.5604 16.5989V19.4325C99.5604 19.8108 99.3721 20 98.9975 20H88.5629C88.1863 20 88 19.8108 88 19.4325V16.5969C88 16.2186 88.1883 16.0294 88.5629 16.0294H91.6638V4.13162H88.5629C88.1863 4.13162 88 3.94245 88 3.56612V0.732549C88 0.354203 88.1883 0.16503 88.5629 0.16503H91.3834C91.76 0.16503 92.0785 0.297854 92.3429 0.561488L95.4739 3.70498" fill="#F4F4F4"/>
<path d="M112.086 19.9135C111.71 19.9135 111.521 19.7243 111.521 19.3459V7.87483C111.521 7.70376 111.483 7.53069 111.409 7.35158C111.333 7.17247 111.241 7.02556 111.127 6.91286L108.675 4.44556C108.41 4.18193 108.092 4.04911 107.715 4.04911C107.339 4.04911 107.15 4.23828 107.15 4.61663V19.348C107.15 19.7263 106.962 19.9155 106.588 19.9155H103.487C103.11 19.9155 102.922 19.7263 102.922 19.348V0.650034C102.922 0.271688 103.11 0.0825152 103.487 0.0825152H109.548C109.925 0.0825152 110.243 0.215339 110.508 0.478973L115.358 5.35118C115.47 5.46388 115.564 5.61079 115.64 5.7899C115.714 5.96901 115.752 6.14409 115.752 6.31314V19.3439C115.752 19.7223 115.564 19.9114 115.189 19.9114H112.086V19.9135ZM118.15 0.0825152C118.527 0.0825152 118.845 0.215339 119.11 0.478973L123.959 5.35118C124.222 5.61683 124.354 5.93681 124.354 6.31516V19.3459C124.354 19.7243 124.166 19.9135 123.791 19.9135H120.69C120.313 19.9135 120.125 19.7243 120.125 19.3459V7.87483C120.125 7.70376 120.101 7.53069 120.055 7.35158C120.009 7.17247 119.929 7.02556 119.815 6.91286L117.277 4.44758C117.182 4.35299 117.064 4.27249 116.924 4.20608C116.784 4.13967 116.638 4.08734 116.487 4.04911C116.111 3.99276 115.924 3.80358 115.924 3.4836V0.650034C115.924 0.271688 116.113 0.0825152 116.487 0.0825152H118.15Z" fill="#F4F4F4"/>
<path d="M133.116 8.0157C133.286 8.0157 133.458 7.99155 133.637 7.94526C133.815 7.89897 133.961 7.82653 134.073 7.73194L136.245 6.08976C136.507 5.88247 136.639 5.76977 136.639 5.74965C136.639 5.71141 136.601 5.68324 136.527 5.66513C136.451 5.64701 136.359 5.59871 136.245 5.52425L134.073 4.24834C133.961 4.17388 133.815 4.12156 133.637 4.09338C133.458 4.06521 133.284 4.05112 133.116 4.05112H127.956C127.579 4.05112 127.393 3.86195 127.393 3.48561V0.650034C127.393 0.271688 127.581 0.0825152 127.956 0.0825152H134.159C134.536 0.0825152 134.855 0.167039 135.119 0.3381L140.758 3.90823C141.02 4.07728 141.153 4.27652 141.153 4.50393V6.40169C141.153 6.57074 141.115 6.75186 141.04 6.93902C140.964 7.1282 140.872 7.26907 140.758 7.36366L137.657 9.68807L141.605 12.6343C141.718 12.7289 141.812 12.8698 141.888 13.059C141.962 13.2481 142 13.4272 142 13.5963V15.4941C142 15.7215 141.868 15.9187 141.605 16.0898L135.966 19.6599C135.702 19.8309 135.383 19.9155 135.007 19.9155H127.675C127.299 19.9155 127.11 19.7263 127.11 19.348V16.5144C127.11 16.136 127.299 15.9469 127.675 15.9469H133.963C134.133 15.9469 134.306 15.9328 134.484 15.9046C134.662 15.8764 134.809 15.8241 134.921 15.7496L137.092 14.4737C137.204 14.3993 137.298 14.351 137.375 14.3329C137.449 14.3147 137.487 14.2866 137.487 14.2483C137.487 14.2101 137.355 14.0974 137.092 13.9082L134.921 12.264C134.809 12.1695 134.662 12.099 134.484 12.0507C134.306 12.0044 134.131 11.9803 133.963 11.9803H131.595C131.219 11.9803 131.033 11.7911 131.033 11.4148V8.58322C131.033 8.20487 131.221 8.0157 131.595 8.0157H133.116Z" fill="#F4F4F4"/>
<path d="M96.2491 3.59831C97.2382 3.59831 98.04 2.7928 98.04 1.79915C98.04 0.805509 97.2382 0 96.2491 0C95.26 0 94.4582 0.805509 94.4582 1.79915C94.4582 2.7928 95.26 3.59831 96.2491 3.59831Z" fill="#F4F4F4"/>
</svg>
