<svg width="100" height="26" viewBox="0 0 100 26" fill="none" xmlns="http://www.w3.org/2000/svg">
<g clip-path="url(#clip0_5_724)">
<path d="M54.7246 25.9383C49.5251 25.9383 44.6898 23.06 42.4056 18.6076C40.8786 15.6296 37.6937 13.7416 34.2033 13.7416C30.7128 13.7416 27.5279 15.632 26.0009 18.6076C23.7166 23.06 18.8814 25.9383 13.6818 25.9383C6.13642 25.9383 0 20.1209 0 12.9703C0 5.81975 6.13642 0 13.6818 0C18.8814 0 23.7166 2.87824 26.0009 7.33064C27.5279 10.3086 30.7128 12.1967 34.2033 12.1967C37.6937 12.1967 40.8812 10.3062 42.4056 7.33064C44.6898 2.87824 49.5251 0 54.7246 0C62.2675 0 68.4065 5.81732 68.4065 12.9703C68.4065 20.1233 62.2675 25.9383 54.7246 25.9383Z" fill="white"/>
<path d="M86.246 25.9407C93.8023 25.9407 99.9277 20.1337 99.9277 12.9703C99.9277 5.80703 93.8023 0 86.246 0C78.6897 0 72.5641 5.80703 72.5641 12.9703C72.5641 20.1337 78.6897 25.9407 86.246 25.9407Z" fill="white"/>
</g>
<defs>
<clipPath id="clip0_5_724">
<rect width="100" height="26" fill="white"/>
</clipPath>
</defs>
</svg>
