<svg width="28" height="25" viewBox="0 0 28 25" fill="none" xmlns="http://www.w3.org/2000/svg">
<path fill-rule="evenodd" clip-rule="evenodd" d="M0 2.5C0 1.11929 1.11929 0 2.5 0H25.5C26.8807 0 28 1.11929 28 2.5C28 3.88071 26.8807 5 25.5 5H2.5C1.11929 5 0 3.88071 0 2.5ZM0 12.5C0 11.1193 1.11929 10 2.5 10H25.5C26.8807 10 28 11.1193 28 12.5C28 13.8807 26.8807 15 25.5 15H2.5C1.11929 15 0 13.8807 0 12.5ZM2.5 20C1.11929 20 0 21.1193 0 22.5C0 23.8807 1.11929 25 2.5 25H25.5C26.8807 25 28 23.8807 28 22.5C28 21.1193 26.8807 20 25.5 20H2.5Z" fill="white"/>
</svg>
