<svg width="16" height="16" viewBox="0 0 16 16" fill="none" xmlns="http://www.w3.org/2000/svg">
<path opacity="0.8" d="M14.5182 2.94664H13.0139V1.4863C13.0139 0.665279 12.3506 0 11.5321 0H1.4818C0.663268 0 0 0.665279 0 1.4863V11.5671C0 12.3881 0.663268 13.0534 1.4818 13.0534H2.98611V14.5137C2.98611 15.3347 3.64938 16 4.46792 16H14.5182C15.3367 16 16 15.3347 16 14.5137V4.43294C16 3.61192 15.3367 2.94664 14.5182 2.94664ZM1.58757 9.97468V3.07868C1.58757 2.25766 2.25083 1.59238 3.06937 1.59238H9.94508C10.7192 1.59238 11.3543 2.18769 11.4207 2.94721H4.46792C3.64938 2.94721 2.98611 3.61249 2.98611 4.4335V11.4587C2.20639 11.4153 1.58757 10.7675 1.58757 9.97468Z" fill="#010101"/>
</svg>
