<svg width="15" height="16" viewBox="0 0 15 16" fill="none" xmlns="http://www.w3.org/2000/svg">
<path d="M9.10121 3.66747C9.10121 5.56023 7.60246 7.08494 5.76545 7.08494C3.92844 7.08494 2.42969 5.56023 2.42969 3.66747C2.42969 1.77471 3.92844 0.25 5.76545 0.25C7.60246 0.25 9.10121 1.77471 9.10121 3.66747Z" fill="#302F2F" stroke="#F4F4F4" stroke-width="0.5"/>
<path d="M10.821 13.3735C10.7081 13.4313 10.581 13.4636 10.4474 13.4636H1.09327C0.633684 13.4636 0.251953 13.0809 0.251953 12.5974C0.251953 10.0003 2.30923 7.9043 4.83494 7.9043H6.70577C9.23147 7.9043 11.2888 10.0003 11.2888 12.5974C11.2888 12.7729 11.2385 12.9351 11.1524 13.0706L10.9926 12.8297C10.9781 12.8355 10.9393 12.8515 10.9022 12.8868C10.8563 12.9305 10.821 12.9963 10.821 13.0758V13.3735ZM11.0978 13.0758H11.1491C11.1425 13.086 11.1357 13.096 11.1287 13.1059C11.1251 13.1111 11.1214 13.1162 11.1176 13.1213C11.1154 13.1243 11.1131 13.1273 11.1109 13.1303L11.1009 13.105L11.0894 13.0758H11.0978ZM11.1558 13.0758H11.321C11.321 13.1404 11.2954 13.1953 11.261 13.2343L11.1558 13.0758Z" fill="#302F2F" stroke="#F4F4F4" stroke-width="0.5"/>
<path d="M12.5641 5.95458C12.5641 7.84734 11.0654 9.37205 9.22834 9.37205C7.39133 9.37205 5.89258 7.84734 5.89258 5.95458C5.89258 4.06182 7.39133 2.53711 9.22834 2.53711C11.0654 2.53711 12.5641 4.06182 12.5641 5.95458Z" fill="#302F2F" stroke="#F4F4F4" stroke-width="0.5"/>
<path d="M14.2839 15.6606C14.171 15.7184 14.0439 15.7507 13.9103 15.7507H4.55616C4.09657 15.7507 3.71484 15.368 3.71484 14.8845C3.71484 12.2874 5.77212 10.1914 8.29783 10.1914H10.1687C12.6944 10.1914 14.7516 12.2874 14.7516 14.8845C14.7516 15.06 14.7013 15.2222 14.6153 15.3577L14.4555 15.1168C14.4409 15.1226 14.4022 15.1386 14.365 15.1739C14.3192 15.2176 14.2839 15.2834 14.2839 15.3629V15.6606ZM14.5607 15.3629H14.612C14.6054 15.3731 14.5986 15.3832 14.5916 15.3931C14.5879 15.3982 14.5842 15.4033 14.5805 15.4084C14.5783 15.4114 14.576 15.4144 14.5737 15.4174L14.5638 15.3921L14.5523 15.3629H14.5607ZM14.6187 15.3629H14.7839C14.7839 15.4275 14.7583 15.4824 14.7239 15.5214L14.6187 15.3629Z" fill="#302F2F" stroke="#F4F4F4" stroke-width="0.5"/>
</svg>
