<svg width="14" height="14" viewBox="0 0 14 14" fill="none" xmlns="http://www.w3.org/2000/svg">
<path d="M5.34334 6.34083C5.285 6.335 5.215 6.335 5.15084 6.34083C3.7625 6.29417 2.66 5.15667 2.66 3.75667C2.66 2.3275 3.815 1.16667 5.25 1.16667C6.67917 1.16667 7.84 2.3275 7.84 3.75667C7.83417 5.15667 6.73167 6.29417 5.34334 6.34083Z" stroke="white" stroke-linecap="round" stroke-linejoin="round"/>
<path d="M9.57251 2.33333C10.7042 2.33333 11.6142 3.24917 11.6142 4.375C11.6142 5.4775 10.7392 6.37583 9.64834 6.41667C9.60167 6.41083 9.54917 6.41083 9.49667 6.41667" stroke="white" stroke-linecap="round" stroke-linejoin="round"/>
<path d="M2.42667 8.49333C1.015 9.43833 1.015 10.9783 2.42667 11.9175C4.03084 12.9908 6.66167 12.9908 8.26584 11.9175C9.6775 10.9725 9.6775 9.4325 8.26584 8.49333C6.6675 7.42583 4.03667 7.42583 2.42667 8.49333Z" stroke="white" stroke-linecap="round" stroke-linejoin="round"/>
<path d="M10.6983 11.6667C11.1183 11.5792 11.515 11.41 11.8417 11.1592C12.7517 10.4767 12.7517 9.35083 11.8417 8.66833C11.5208 8.42333 11.13 8.26 10.7158 8.16667" stroke="white" stroke-linecap="round" stroke-linejoin="round"/>
</svg>
