<svg width="16" height="16" viewBox="0 0 16 16" fill="none" xmlns="http://www.w3.org/2000/svg">
<path d="M6.93294 1.59961C3.99374 1.59961 1.59961 3.99374 1.59961 6.93294C1.59961 9.87214 3.99374 12.2663 6.93294 12.2663C8.21108 12.2663 9.38488 11.8124 10.3048 11.059L13.4892 14.2434C13.5383 14.2945 13.5972 14.3354 13.6623 14.3636C13.7275 14.3917 13.7976 14.4066 13.8685 14.4073C13.9395 14.408 14.0099 14.3946 14.0756 14.3678C14.1413 14.3409 14.2009 14.3013 14.2511 14.2511C14.3013 14.2009 14.3409 14.1413 14.3678 14.0756C14.3946 14.0099 14.408 13.9395 14.4073 13.8685C14.4066 13.7976 14.3917 13.7275 14.3636 13.6623C14.3354 13.5972 14.2945 13.5383 14.2434 13.4892L11.059 10.3048C11.8124 9.38488 12.2663 8.21108 12.2663 6.93294C12.2663 3.99374 9.87214 1.59961 6.93294 1.59961ZM6.93294 2.66628C9.29568 2.66628 11.1996 4.57021 11.1996 6.93294C11.1996 9.29568 9.29568 11.1996 6.93294 11.1996C4.57021 11.1996 2.66628 9.29568 2.66628 6.93294C2.66628 4.57021 4.57021 2.66628 6.93294 2.66628Z" fill="#F4F4F4" fill-opacity="0.5"/>
</svg>
