<svg width="24" height="24" viewBox="0 0 24 24" fill="none" xmlns="http://www.w3.org/2000/svg">
<path fill-rule="evenodd" clip-rule="evenodd" d="M12 24C18.6274 24 24 18.6274 24 12C24 5.37258 18.6274 0 12 0C5.37258 0 0 5.37258 0 12C0 18.6274 5.37258 24 12 24ZM6.80472 7.2007C7.12834 7.2007 7.39069 6.93192 7.39069 6.60035C7.39069 6.26879 7.12834 6 6.80472 6C6.4811 6 6.21875 6.26879 6.21875 6.60035C6.21875 6.93192 6.4811 7.2007 6.80472 7.2007ZM5.57886 6.76954C5.57886 6.88635 5.48644 6.98103 5.37244 6.98103C5.25843 6.98103 5.16602 6.88635 5.16602 6.76954C5.16602 6.65274 5.25843 6.55806 5.37244 6.55806C5.48644 6.55806 5.57886 6.65274 5.57886 6.76954ZM8.07751 13.1755C8.19152 13.1755 8.28394 13.0808 8.28394 12.964C8.28394 12.8472 8.19152 12.7525 8.07751 12.7525C7.96351 12.7525 7.87109 12.8472 7.87109 12.964C7.87109 13.0808 7.96351 13.1755 8.07751 13.1755ZM5.20642 13.4326C5.32042 13.4326 5.41284 13.3379 5.41284 13.2211C5.41284 13.1043 5.32042 13.0096 5.20642 13.0096C5.09242 13.0096 5 13.1043 5 13.2211C5 13.3379 5.09242 13.4326 5.20642 13.4326ZM9.11011 14.1758C9.11011 14.2925 9.01769 14.3872 8.90368 14.3872C8.78968 14.3872 8.69727 14.2925 8.69727 14.1758C8.69727 14.059 8.78968 13.9643 8.90368 13.9643C9.01769 13.9643 9.11011 14.059 9.11011 14.1758ZM11.351 13.5004C11.465 13.5004 11.5574 13.4057 11.5574 13.2889C11.5574 13.1721 11.465 13.0774 11.351 13.0774C11.2369 13.0774 11.1445 13.1721 11.1445 13.2889C11.1445 13.4057 11.2369 13.5004 11.351 13.5004ZM5.5911 9.65648C5.76763 9.65648 5.91072 9.50987 5.91072 9.32902C5.91072 9.14816 5.76763 9.00156 5.5911 9.00156C5.41458 9.00156 5.27148 9.14816 5.27148 9.32902C5.27148 9.50987 5.41458 9.65648 5.5911 9.65648ZM11.0483 12.4554C11.0483 12.6061 10.9291 12.7283 10.782 12.7283C10.6349 12.7283 10.5156 12.6061 10.5156 12.4554C10.5156 12.3047 10.6349 12.1825 10.782 12.1825C10.9291 12.1825 11.0483 12.3047 11.0483 12.4554ZM5.41283 16.0527C5.55994 16.0527 5.67918 15.9305 5.67918 15.7798C5.67918 15.6291 5.55994 15.5069 5.41283 15.5069C5.26573 15.5069 5.14648 15.6291 5.14648 15.7798C5.14648 15.9305 5.26573 16.0527 5.41283 16.0527ZM7.75589 14.3023C7.75589 14.4681 7.62472 14.6025 7.46291 14.6025C7.3011 14.6025 7.16992 14.4681 7.16992 14.3023C7.16992 14.1365 7.3011 14.0022 7.46291 14.0022C7.62472 14.0022 7.75589 14.1365 7.75589 14.3023ZM10.5625 16.8985C10.7243 16.8985 10.8555 16.7641 10.8555 16.5983C10.8555 16.4325 10.7243 16.2982 10.5625 16.2982C10.4007 16.2982 10.2695 16.4325 10.2695 16.5983C10.2695 16.7641 10.4007 16.8985 10.5625 16.8985ZM9.96611 15.3869C9.96611 15.5188 9.86177 15.6257 9.73306 15.6257C9.60435 15.6257 9.5 15.5188 9.5 15.3869C9.5 15.255 9.60435 15.1482 9.73306 15.1482C9.86177 15.1482 9.96611 15.255 9.96611 15.3869ZM6.24607 17.3553C6.43914 17.3553 6.59565 17.1949 6.59565 16.9971C6.59565 16.7993 6.43914 16.639 6.24607 16.639C6.053 16.639 5.89648 16.7993 5.89648 16.9971C5.89648 17.1949 6.053 17.3553 6.24607 17.3553ZM8.17557 7.94034C8.17557 8.24365 7.93558 8.48953 7.63954 8.48953C7.3435 8.48953 7.10352 8.24365 7.10352 7.94034C7.10352 7.63704 7.3435 7.39116 7.63954 7.39116C7.93558 7.39116 8.17557 7.63704 8.17557 7.94034ZM7.52305 9.32729C7.52305 9.61175 7.29797 9.84236 7.02032 9.84236C6.74266 9.84236 6.51758 9.61175 6.51758 9.32729C6.51758 9.04282 6.74266 8.81221 7.02032 8.81221C7.29797 8.81221 7.52305 9.04282 7.52305 9.32729ZM8.46882 9.61392C8.76118 9.61392 8.99819 9.3711 8.99819 9.07156C8.99819 8.77202 8.76118 8.5292 8.46882 8.5292C8.17646 8.5292 7.93945 8.77202 7.93945 9.07156C7.93945 9.3711 8.17646 9.61392 8.46882 9.61392ZM6.92814 10.5325C6.92814 10.8189 6.70157 11.051 6.42208 11.051C6.14258 11.051 5.91602 10.8189 5.91602 10.5325C5.91602 10.2462 6.14258 10.014 6.42208 10.014C6.70157 10.014 6.92814 10.2462 6.92814 10.5325ZM7.85776 10.9056C8.12438 10.9056 8.34051 10.6841 8.34051 10.411C8.34051 10.1378 8.12438 9.91637 7.85776 9.91637C7.59114 9.91637 7.375 10.1378 7.375 10.411C7.375 10.6841 7.59114 10.9056 7.85776 10.9056ZM9.71986 10.2824C9.71986 10.5198 9.53204 10.7122 9.30036 10.7122C9.06868 10.7122 8.88086 10.5198 8.88086 10.2824C8.88086 10.045 9.06868 9.85259 9.30036 9.85259C9.53204 9.85259 9.71986 10.045 9.71986 10.2824ZM8.68903 12.0555C8.92071 12.0555 9.10853 11.8631 9.10853 11.6257C9.10853 11.3883 8.92071 11.1959 8.68903 11.1959C8.45734 11.1959 8.26953 11.3883 8.26953 11.6257C8.26953 11.8631 8.45734 12.0555 8.68903 12.0555ZM7.66322 11.7553C7.66322 11.9926 7.4754 12.1851 7.24372 12.1851C7.01204 12.1851 6.82422 11.9926 6.82422 11.7553C6.82422 11.5179 7.01204 11.3255 7.24372 11.3255C7.4754 11.3255 7.66322 11.5179 7.66322 11.7553ZM6.63373 13.5794C6.89851 13.5794 7.11316 13.3595 7.11316 13.0883C7.11316 12.817 6.89851 12.597 6.63373 12.597C6.36895 12.597 6.1543 12.817 6.1543 13.0883C6.1543 13.3595 6.36895 13.5794 6.63373 13.5794ZM6.45388 14.4288C6.45388 14.6699 6.26308 14.8654 6.02772 14.8654C5.79236 14.8654 5.60156 14.6699 5.60156 14.4288C5.60156 14.1876 5.79236 13.9922 6.02772 13.9922C6.26308 13.9922 6.45388 14.1876 6.45388 14.4288ZM10.3452 14.5293C10.6082 14.5293 10.8213 14.3109 10.8213 14.0415C10.8213 13.7721 10.6082 13.5537 10.3452 13.5537C10.0823 13.5537 9.86914 13.7721 9.86914 14.0415C9.86914 14.3109 10.0823 14.5293 10.3452 14.5293ZM9.9862 12.8371C9.9862 13.1084 9.77155 13.3283 9.50677 13.3283C9.24199 13.3283 9.02734 13.1084 9.02734 12.8371C9.02734 12.5658 9.24199 12.3459 9.50677 12.3459C9.77155 12.3459 9.9862 12.5658 9.9862 12.8371ZM6.85247 16.1406C7.11726 16.1406 7.3319 15.9207 7.3319 15.6493C7.3319 15.378 7.11726 15.1581 6.85247 15.1581C6.58769 15.1581 6.37305 15.378 6.37305 15.6493C6.37305 15.9207 6.58769 16.1406 6.85247 16.1406ZM6.15194 11.8818C6.15194 12.0833 5.99244 12.2468 5.79569 12.2468C5.59895 12.2468 5.43945 12.0833 5.43945 11.8818C5.43945 11.6802 5.59895 11.5168 5.79569 11.5168C5.99244 11.5168 6.15194 11.6802 6.15194 11.8818ZM10.1316 11.8581C10.3284 11.8581 10.4879 11.6947 10.4879 11.4931C10.4879 11.2916 10.3284 11.1282 10.1316 11.1282C9.93489 11.1282 9.77539 11.2916 9.77539 11.4931C9.77539 11.6947 9.93489 11.8581 10.1316 11.8581ZM6.73061 7.97936C6.73061 8.2789 6.49361 8.52172 6.20124 8.52172C5.90888 8.52172 5.67188 8.2789 5.67188 7.97936C5.67188 7.67982 5.90888 7.437 6.20124 7.437C6.49361 7.437 6.73061 7.67982 6.73061 7.97936ZM12.4093 14.2418C12.3716 14.4395 12.2016 14.5887 11.9976 14.5887C11.7659 14.5887 11.5781 14.3963 11.5781 14.1589C11.5781 13.9215 11.7659 13.7291 11.9976 13.7291C12.2036 13.7291 12.3749 13.8812 12.4104 14.0818C12.4156 14.1068 12.4184 14.1327 12.4184 14.1593C12.4184 14.1877 12.4152 14.2153 12.4093 14.2418ZM19.0007 13.2211C19.0007 13.3379 18.9083 13.4326 18.7943 13.4326C18.6803 13.4326 18.5879 13.3379 18.5879 13.2211C18.5879 13.1043 18.6803 13.0096 18.7943 13.0096C18.9083 13.0096 19.0007 13.1043 19.0007 13.2211ZM15.9193 13.1755C16.0333 13.1755 16.1258 13.0808 16.1258 12.964C16.1258 12.8472 16.0333 12.7525 15.9193 12.7525C15.8053 12.7525 15.7129 12.8472 15.7129 12.964C15.7129 13.0808 15.8053 13.1755 15.9193 13.1755ZM15.2995 14.1758C15.2995 14.2925 15.2071 14.3872 15.0931 14.3872C14.9791 14.3872 14.8867 14.2925 14.8867 14.1758C14.8867 14.059 14.9791 13.9643 15.0931 13.9643C15.2071 13.9643 15.2995 14.059 15.2995 14.1758ZM12.6458 13.5004C12.7598 13.5004 12.8523 13.4057 12.8523 13.2889C12.8523 13.1721 12.7598 13.0774 12.6458 13.0774C12.5318 13.0774 12.4395 13.1721 12.4395 13.2889C12.4395 13.4057 12.5318 13.5004 12.6458 13.5004ZM18.8328 6.76954C18.8328 6.88635 18.7404 6.98103 18.6264 6.98103C18.5123 6.98103 18.4199 6.88635 18.4199 6.76954C18.4199 6.65274 18.5123 6.55806 18.6264 6.55806C18.7404 6.55806 18.8328 6.65274 18.8328 6.76954ZM18.4095 9.65648C18.586 9.65648 18.7291 9.50987 18.7291 9.32902C18.7291 9.14817 18.586 9.00156 18.4095 9.00156C18.2329 9.00156 18.0898 9.14817 18.0898 9.32902C18.0898 9.50987 18.2329 9.65648 18.4095 9.65648ZM13.4839 12.4554C13.4839 12.6061 13.3647 12.7283 13.2175 12.7283C13.0705 12.7283 12.9512 12.6061 12.9512 12.4554C12.9512 12.3047 13.0705 12.1825 13.2175 12.1825C13.3647 12.1825 13.4839 12.3047 13.4839 12.4554ZM18.5828 16.0527C18.7298 16.0527 18.8491 15.9305 18.8491 15.7798C18.8491 15.6291 18.7298 15.5069 18.5828 15.5069C18.4356 15.5069 18.3164 15.6291 18.3164 15.7798C18.3164 15.9305 18.4356 16.0527 18.5828 16.0527ZM16.8262 14.3023C16.8262 14.4681 16.695 14.6025 16.5332 14.6025C16.3714 14.6025 16.2402 14.4681 16.2402 14.3023C16.2402 14.1365 16.3714 14.0022 16.5332 14.0022C16.695 14.0022 16.8262 14.1365 16.8262 14.3023ZM13.4355 16.8985C13.5973 16.8985 13.7285 16.7641 13.7285 16.5983C13.7285 16.4325 13.5973 16.2982 13.4355 16.2982C13.2737 16.2982 13.1426 16.4325 13.1426 16.5983C13.1426 16.7641 13.2737 16.8985 13.4355 16.8985ZM14.4993 15.3869C14.4993 15.5188 14.395 15.6257 14.2662 15.6257C14.1375 15.6257 14.0332 15.5188 14.0332 15.3869C14.0332 15.255 14.1375 15.1482 14.2662 15.1482C14.395 15.1482 14.4993 15.255 14.4993 15.3869ZM17.7519 17.3553C17.945 17.3553 18.1015 17.1949 18.1015 16.9971C18.1015 16.7993 17.945 16.639 17.7519 16.639C17.5589 16.639 17.4023 16.7993 17.4023 16.9971C17.4023 17.1949 17.5589 17.3553 17.7519 17.3553ZM16.8923 7.94034C16.8923 8.24365 16.6524 8.48953 16.3563 8.48953C16.0603 8.48953 15.8203 8.24365 15.8203 7.94034C15.8203 7.63704 16.0603 7.39116 16.3563 7.39116C16.6524 7.39116 16.8923 7.63704 16.8923 7.94034ZM17.1914 7.2007C17.515 7.2007 17.7774 6.93192 17.7774 6.60035C17.7774 6.26879 17.515 6 17.1914 6C16.8678 6 16.6055 6.26879 16.6055 6.60035C16.6055 6.93192 16.8678 7.2007 17.1914 7.2007ZM17.4801 9.32729C17.4801 9.61175 17.255 9.84236 16.9774 9.84236C16.6997 9.84236 16.4746 9.61175 16.4746 9.32729C16.4746 9.04282 16.6997 8.81221 16.9774 8.81221C17.255 8.81221 17.4801 9.04282 17.4801 9.32729ZM15.5313 9.61392C15.8236 9.61392 16.0607 9.3711 16.0607 9.07156C16.0607 8.77202 15.8236 8.5292 15.5313 8.5292C15.2389 8.5292 15.002 8.77202 15.002 9.07156C15.002 9.3711 15.2389 9.61392 15.5313 9.61392ZM18.0805 10.5325C18.0805 10.8189 17.8539 11.051 17.5744 11.051C17.2949 11.051 17.0684 10.8189 17.0684 10.5325C17.0684 10.2462 17.2949 10.014 17.5744 10.014C17.8539 10.014 18.0805 10.2462 18.0805 10.5325ZM16.1449 10.9056C16.4115 10.9056 16.6276 10.6841 16.6276 10.411C16.6276 10.1378 16.4115 9.91637 16.1449 9.91637C15.8783 9.91637 15.6621 10.1378 15.6621 10.411C15.6621 10.6841 15.8783 10.9056 16.1449 10.9056ZM15.1183 10.2824C15.1183 10.5198 14.9305 10.7122 14.6988 10.7122C14.4671 10.7122 14.2793 10.5198 14.2793 10.2824C14.2793 10.045 14.4671 9.85259 14.6988 9.85259C14.9305 9.85259 15.1183 10.045 15.1183 10.2824ZM15.3062 12.0555C15.5379 12.0555 15.7257 11.8631 15.7257 11.6257C15.7257 11.3883 15.5379 11.1959 15.3062 11.1959C15.0745 11.1959 14.8867 11.3883 14.8867 11.6257C14.8867 11.8631 15.0745 12.0555 15.3062 12.0555ZM17.1749 11.7553C17.1749 11.9927 16.9871 12.1851 16.7554 12.1851C16.5237 12.1851 16.3359 11.9927 16.3359 11.7553C16.3359 11.5179 16.5237 11.3255 16.7554 11.3255C16.9871 11.3255 17.1749 11.5179 17.1749 11.7553ZM17.3622 13.5794C17.627 13.5794 17.8417 13.3595 17.8417 13.0883C17.8417 12.817 17.627 12.597 17.3622 12.597C17.0975 12.597 16.8828 12.817 16.8828 13.0883C16.8828 13.3595 17.0975 13.5794 17.3622 13.5794ZM18.3973 14.4288C18.3973 14.6699 18.2065 14.8654 17.9711 14.8654C17.7358 14.8654 17.5449 14.6699 17.5449 14.4288C17.5449 14.1876 17.7358 13.9922 17.9711 13.9922C18.2065 13.9922 18.3973 14.1876 18.3973 14.4288ZM13.6538 14.5293C13.9168 14.5293 14.1299 14.3109 14.1299 14.0415C14.1299 13.7721 13.9168 13.5537 13.6538 13.5537C13.3909 13.5537 13.1777 13.7721 13.1777 14.0415C13.1777 14.3109 13.3909 14.5293 13.6538 14.5293ZM14.9686 12.8371C14.9686 13.1084 14.754 13.3283 14.4892 13.3283C14.2244 13.3283 14.0098 13.1084 14.0098 12.8371C14.0098 12.5658 14.2244 12.3459 14.4892 12.3459C14.754 12.3459 14.9686 12.5658 14.9686 12.8371ZM17.1494 16.1406C17.4141 16.1406 17.6288 15.9207 17.6288 15.6493C17.6288 15.378 17.4141 15.1581 17.1494 15.1581C16.8846 15.1581 16.6699 15.378 16.6699 15.6493C16.6699 15.9207 16.8846 16.1406 17.1494 16.1406ZM18.5582 11.8818C18.5582 12.0833 18.3987 12.2468 18.2019 12.2468C18.0052 12.2468 17.8457 12.0833 17.8457 11.8818C17.8457 11.6802 18.0052 11.5168 18.2019 11.5168C18.3987 11.5168 18.5582 11.6802 18.5582 11.8818ZM13.8699 11.8581C14.0666 11.8581 14.2262 11.6947 14.2262 11.4931C14.2262 11.2916 14.0666 11.1282 13.8699 11.1282C13.6731 11.1282 13.5137 11.2916 13.5137 11.4931C13.5137 11.6947 13.6731 11.8581 13.8699 11.8581ZM18.3263 7.97936C18.3263 8.2789 18.0893 8.52172 17.797 8.52172C17.5046 8.52172 17.2676 8.2789 17.2676 7.97936C17.2676 7.67982 17.5046 7.437 17.797 7.437C18.0893 7.437 18.3263 7.67982 18.3263 7.97936ZM11.9976 16.9325C12.2293 16.9325 12.4171 16.7401 12.4171 16.5028C12.4171 16.2654 12.2293 16.0729 11.9976 16.0729C11.7659 16.0729 11.5781 16.2654 11.5781 16.5028C11.5781 16.7401 11.7659 16.9325 11.9976 16.9325ZM11.589 15.2591C11.589 15.4965 11.4012 15.6889 11.1695 15.6889C10.9378 15.6889 10.75 15.4965 10.75 15.2591C10.75 15.0217 10.9378 14.8293 11.1695 14.8293C11.4012 14.8293 11.589 15.0217 11.589 15.2591ZM12.8277 15.6889C13.0594 15.6889 13.2472 15.4965 13.2472 15.2591C13.2472 15.0217 13.0594 14.8293 12.8277 14.8293C12.596 14.8293 12.4082 15.0217 12.4082 15.2591C12.4082 15.4965 12.596 15.6889 12.8277 15.6889ZM11.5686 17.8157C11.5686 17.9174 11.4881 17.9999 11.3888 17.9999C11.2895 17.9999 11.209 17.9174 11.209 17.8157C11.209 17.714 11.2895 17.6315 11.3888 17.6315C11.4881 17.6315 11.5686 17.714 11.5686 17.8157ZM12.6095 17.9999C12.7087 17.9999 12.7892 17.9174 12.7892 17.8157C12.7892 17.714 12.7087 17.6315 12.6095 17.6315C12.5102 17.6315 12.4297 17.714 12.4297 17.8157C12.4297 17.9174 12.5102 17.9999 12.6095 17.9999Z" fill="#F4F4F4"/>
</svg>
