<svg width="12" height="17" viewBox="0 0 12 17" fill="none" xmlns="http://www.w3.org/2000/svg">
<path d="M9.25025 6.8626V3.46128C9.22487 2.53467 8.83894 1.65453 8.17457 1.00811C7.5102 0.361686 6.61983 0 5.69287 0C4.76591 0 3.87554 0.361686 3.21117 1.00811C2.5468 1.65453 2.16087 2.53467 2.13549 3.46128V6.8626C1.21461 7.59967 0.545411 8.60459 0.22039 9.73846C-0.104631 10.8723 -0.0694242 12.0792 0.321144 13.1922C0.711711 14.3051 1.43835 15.2693 2.40064 15.9515C3.36293 16.6336 4.51334 17 5.69287 17C6.8724 17 8.02281 16.6336 8.9851 15.9515C9.94739 15.2693 10.674 14.3051 11.0646 13.1922C11.4552 12.0792 11.4904 10.8723 11.1653 9.73846C10.8403 8.60459 10.1711 7.59967 9.25025 6.8626ZM5.69154 1.32713C6.25755 1.32713 6.80038 1.55197 7.20061 1.95221C7.60085 2.35244 7.8257 2.89527 7.8257 3.46128V6.04095C6.45445 5.49942 4.92862 5.49942 3.55738 6.04095V3.46128C3.55738 2.89527 3.78222 2.35244 4.18246 1.95221C4.58269 1.55197 5.12552 1.32713 5.69154 1.32713ZM6.40381 15.4926V13.2251C6.67567 13.0685 6.88825 12.8266 7.00854 12.5368C7.12883 12.2471 7.15011 11.9257 7.06908 11.6226C6.98805 11.3196 6.80923 11.0517 6.56039 10.8607C6.31154 10.6696 6.00659 10.566 5.69287 10.566C5.37915 10.566 5.07419 10.6696 4.82535 10.8607C4.57651 11.0517 4.39769 11.3196 4.31666 11.6226C4.23563 11.9257 4.25691 12.2471 4.3772 12.5368C4.49749 12.8266 4.71007 13.0685 4.98193 13.2251V15.4926C4.1478 15.3501 3.37485 14.9629 2.76127 14.3801C2.14769 13.7974 1.72118 13.0454 1.53592 12.2197C1.35065 11.394 1.415 10.5319 1.72078 9.74288C2.02656 8.95384 2.55997 8.27351 3.25326 7.78829C3.9715 7.29704 4.82137 7.0342 5.69154 7.0342C6.5617 7.0342 7.41158 7.29704 8.12981 7.78829C8.82306 8.27333 9.35653 8.95345 9.66245 9.74229C9.96837 10.5311 10.033 11.3931 9.84799 12.2187C9.66302 13.0443 9.23686 13.7964 8.62362 14.3793C8.01039 14.9622 7.23774 15.3497 6.40381 15.4926Z" fill="#F4F4F4"/>
</svg>
