<svg width="8" height="12" viewBox="0 0 8 12" fill="none" xmlns="http://www.w3.org/2000/svg">
<g opacity="0.6">
<path d="M6.49862 4.84389V2.44311C6.48079 1.78907 6.20962 1.16783 5.74281 0.711563C5.27601 0.255292 4.6504 0 3.99909 0C3.34777 0 2.72217 0.255292 2.25536 0.711563C1.78855 1.16783 1.51739 1.78907 1.49956 2.44311C1.49538 2.51159 1.5052 2.58021 1.52841 2.64474C1.55163 2.70927 1.58774 2.76834 1.63454 2.81832C1.68133 2.8683 1.73782 2.90812 1.80051 2.93535C1.86321 2.96257 1.93079 2.97662 1.99909 2.97662C2.06739 2.97662 2.13497 2.96257 2.19766 2.93535C2.26035 2.90812 2.31684 2.8683 2.36363 2.81832C2.41043 2.76834 2.44655 2.70927 2.46976 2.64474C2.49298 2.58021 2.5028 2.51159 2.49862 2.44311C2.49862 2.0436 2.6566 1.66044 2.93782 1.37794C3.21904 1.09544 3.60045 0.936737 3.99815 0.936737C4.39585 0.936737 4.77726 1.09544 5.05848 1.37794C5.33969 1.66044 5.49768 2.0436 5.49768 2.44311V4.26394C4.89246 4.01349 4.23511 3.91681 3.58382 3.98245C2.93253 4.04809 2.3074 4.27404 1.76377 4.64028C1.22015 5.00653 0.774801 5.50177 0.467157 6.08216C0.159514 6.66255 -0.000931931 7.31019 2.43359e-05 7.96773C-0.0023374 8.64795 0.167237 9.31764 0.492859 9.91405C0.818481 10.5105 1.28949 11.0141 1.86176 11.3777C2.43403 11.7413 3.08882 11.953 3.76478 11.993C4.44074 12.033 5.11575 11.9 5.72656 11.6064C6.33736 11.3128 6.86398 10.8682 7.25705 10.3143C7.65012 9.76045 7.89679 9.11539 7.97395 8.4396C8.0511 7.7638 7.95621 7.07939 7.69817 6.45049C7.44014 5.8216 7.02739 5.2688 6.49862 4.84389ZM4.49862 10.9353V9.33477C4.68964 9.22426 4.839 9.05349 4.92352 8.84898C5.00804 8.64446 5.02299 8.41764 4.96606 8.20371C4.90912 7.98979 4.78348 7.80073 4.60863 7.66588C4.43379 7.53103 4.21952 7.45793 3.99909 7.45793C3.77865 7.45793 3.56438 7.53103 3.38954 7.66588C3.21469 7.80073 3.08905 7.98979 3.03212 8.20371C2.97518 8.41764 2.99013 8.64446 3.07465 8.84898C3.15917 9.05349 3.30854 9.22426 3.49956 9.33477V10.9353C2.91347 10.8347 2.37037 10.5614 1.93925 10.1501C1.50813 9.73874 1.20845 9.20796 1.07827 8.62516C0.9481 8.04236 0.993311 7.43384 1.20816 6.87691C1.42301 6.31997 1.79781 5.83976 2.28493 5.49728C2.78959 5.15054 3.38674 4.96501 3.99815 4.96501C4.60956 4.96501 5.20671 5.15054 5.71136 5.49728C6.19846 5.83964 6.57329 6.3197 6.78824 6.87649C7.0032 7.43328 7.04857 8.04169 6.91861 8.62444C6.78865 9.2072 6.48921 9.738 6.05833 10.1495C5.62745 10.5609 5.08456 10.8344 4.49862 10.9353Z" fill="#F4F4F4"/>
</g>
</svg>
