<svg width="16" height="16" viewBox="0 0 16 16" fill="none" xmlns="http://www.w3.org/2000/svg">
<path d="M11.3333 14.6667H4.66668C2.00001 14.6667 1.33334 14 1.33334 11.3333V10C1.33334 7.33333 2.00001 6.66667 4.66668 6.66667H11.3333C14 6.66667 14.6667 7.33333 14.6667 10V11.3333C14.6667 14 14 14.6667 11.3333 14.6667Z" stroke="white" stroke-width="1.5" stroke-linecap="round" stroke-linejoin="round"/>
<path d="M4 6.33333V5C4 2.79333 4.66667 1 8 1C11 1 12 2.33333 12 4.33333" stroke="white" stroke-width="1.5" stroke-linecap="round" stroke-linejoin="round"/>
<path d="M8.00001 12.3333C8.92048 12.3333 9.66668 11.5871 9.66668 10.6667C9.66668 9.74619 8.92048 9 8.00001 9C7.07954 9 6.33334 9.74619 6.33334 10.6667C6.33334 11.5871 7.07954 12.3333 8.00001 12.3333Z" stroke="white" stroke-width="1.5" stroke-linecap="round" stroke-linejoin="round"/>
</svg>
