<svg width="24" height="24" viewBox="0 0 24 24" fill="none" xmlns="http://www.w3.org/2000/svg">
<path fill-rule="evenodd" clip-rule="evenodd" d="M12 24C18.6274 24 24 18.6274 24 12C24 5.37258 18.6274 0 12 0C5.37258 0 0 5.37258 0 12C0 18.6274 5.37258 24 12 24ZM13.3073 11.0062L18 18H14.2917L11.2461 13.4607L7.41396 18H6L10.6207 12.5291L10.6212 12.5296L6.24011 6H9.94843L12.6856 10.08L16.1325 6H17.5465L13.3152 11.0127L13.3073 11.0062ZM15.9724 16.9091L9.38817 7.09091H8.26234L14.8519 16.9091H15.9724Z" fill="#F4F4F4"/>
</svg>
